<?xml version="1.0" standalone="no"?><!DOCTYPE svg PUBLIC "-//W3C//DTD SVG 1.1//EN"
    "http://www.w3.org/Graphics/SVG/1.1/DTD/svg11.dtd">
<svg style="" class="icon" height="256" p-id="5785" t="1560909803945" version="1.1"
    viewBox="0 0 1280 1024" width="320" xmlns="http://www.w3.org/2000/svg">
    <defs>
        <style type="text/css"></style>
    </defs>
    <path
        d="M1116.88 259.4c-15.28-35.64-58.5-49.62-91.76-29.66L823.66 350.6 768 128l-85.34 64h-85.34L512 128l-55.66 222.6-201.48-120.88c-33.26-19.96-76.48-5.98-91.76 29.66L0 640l99.24-33.08c54.76-18.26 114.96 2.4 146.98 50.42L320 768l23.64-23.64c55.08-55.08 146.18-48.6 192.92 13.7L640 896l103.44-137.94c46.74-62.32 137.82-68.78 192.92-13.7L960 768l73.76-110.66c32.02-48.02 92.22-68.68 146.98-50.42L1280 640l-163.12-380.6z"
        p-id="5786"></path>
</svg>