<svg viewBox="0 0 351 369" xmlns="http://www.w3.org/2000/svg" xmlns:xlink="http://www.w3.org/1999/xlink"><defs><linearGradient x1="23.05%" y1="32.622%" x2="61.487%" y2="72.798%" id="a"><stop stop-color="#455A64" stop-opacity=".965" offset="0%"/><stop stop-color="#2A253C" offset="100%"/></linearGradient><linearGradient x1="50%" y1="2.285%" x2="50%" y2="100%" id="b"><stop stop-color="#FFF" stop-opacity="0" offset="0%"/><stop stop-color="#FFF" stop-opacity=".2" offset="100%"/></linearGradient><path id="c" d="M0 .05h36.24v58.395H0z"/><path id="e" d="M.458.334h86.726V87.55H.458z"/><path d="M1.4 111.988c-2.468 9.321 3.114 18.962 12.411 21.435l119.09 31.694c9.299 2.474 18.916-3.122 21.384-12.443l29.564-111.632L31.814.582l-.85-.226L1.4 111.988z" id="g"/></defs><g fill="none" fill-rule="evenodd"><g transform="translate(0 5)"><circle fill="url(#a)" cx="146" cy="218" r="146"/><path d="M131 337.759L212.759 256" stroke="url(#b)" stroke-width="15" stroke-linecap="square" transform="rotate(-180 171.88 296.88)"/><path d="M109.488 312.512l81.759-81.759" stroke="url(#b)" stroke-width="22" stroke-linecap="square" transform="rotate(-180 150.367 271.633)"/><path d="M53.488 337.512l81.759-81.759" stroke="url(#b)" stroke-width="35" stroke-linecap="square" transform="rotate(-180 94.367 296.633)"/><circle fill="#FFF" opacity=".05" cx="30" cy="195" r="6"/><circle fill="#FFF" opacity=".191" cx="138.5" cy="322.5" r="4.5"/><circle fill="#FFF" opacity=".405" cx="234.5" cy="294.5" r="4.5"/><circle fill="#FFF" opacity=".456" cx="52" cy="275" r="3"/></g><path d="M64.9 182.883l.698 12.84c.116 2.13 1.812 4.296 3.768 4.817l6.52 1.735 21.061 5.605 6.52 1.734c1.958.521 4.505-.517 5.66-2.308l6.973-10.798-51.2-13.625z" fill="#757575"/><path d="M86.417 205.077l10.53 2.803 6.52 1.735c1.958.52 4.504-.518 5.66-2.309l6.972-10.798-25.609-6.815" fill="#000" opacity=".2"/><path fill="#F3F3F3" d="M64.89 182.881L87.78 79.985l60.096 15.991-31.785 100.53"/><path d="M150.835 84.826l-.002.008c.002-.008-.006-.011-.006-.011l.008.003z" fill="#5BC348"/><path d="M150.827 84.823s.008.003.006.01a9.88 9.88 0 0 0-3.256 5.094 9.923 9.923 0 0 0 .299 6.05L87.78 79.985a9.979 9.979 0 0 0 3.26-5.102 9.955 9.955 0 0 0-.302-6.04c.002-.01.012-.007.012-.007l60.077 15.987z" fill="#C6C6C5"/><path d="M150.827 84.823L90.75 68.836c6.198-22.961 20.688-36.937 38.51-41.149 1.048-.255 2.163-.292 3.28-.156.415.052.842.128 1.269.241.418.112.826.26 1.221.421 1.027.435 1.979 1.012 2.762 1.756 13.392 12.517 19.04 31.851 13.035 54.874" fill="#F3F3F3"/><path d="M90.75 68.836s-.01-.002-.012.007l.002-.009.01.002z" fill="#5BC348"/><path fill="#C6C6C5" d="M117.828 87.98l30.048 7.996-31.786 100.53-25.6-6.813"/><path d="M150.835 84.826l-.002.008c.002-.008-.006-.011-.006-.011l.008.003z" fill="#D3DDE2"/><path d="M120.786 76.839l.001-.01 30.04 7.994s.008.003.005.011a9.891 9.891 0 0 0-3.256 5.094 9.92 9.92 0 0 0 .3 6.048l-30.048-7.996" fill="#000" opacity=".2"/><path d="M133.808 27.772c.418.112.827.258 1.222.422 1.027.435 1.979 1.011 2.763 1.754 13.39 12.518 19.04 31.852 13.033 54.875l-30.04-7.994" fill="#C6C6C5"/><path d="M94.431 193.663c-.014.039-.027.08-.042.118-.015.04-.027.08-.043.118a4.979 4.979 0 0 1-5.964 3.133 4.987 4.987 0 0 1-3.623-5.69c.006-.04.014-.081.022-.123.006-.041.015-.082.022-.123L98.11 117.16c.06-.39.14-.781.245-1.172 1.603-6.042 7.795-9.64 13.831-8.033 6.035 1.606 9.626 7.806 8.023 13.849-.104.393-.23.773-.37 1.144L94.43 193.663z" fill="#1967D2"/><path d="M112.336 107.995c6.035 1.606 9.627 7.806 8.023 13.85-.104.392-.23.772-.37 1.143l-25.407 70.715c-.015.04-.027.08-.043.118-.014.04-.027.08-.042.118a4.98 4.98 0 0 1-5.964 3.133" fill="#000" opacity=".2"/><g transform="translate(62 210.118)"><mask id="d" fill="#fff"><use xlink:href="#c"/></mask><path d="M22.81.908C-7.144-7.062-1.73 42.712 6.335 57.373l-.002-.013a1.865 1.865 0 0 0 2.777.739l-.008.01C22.735 49.78 54.098 9.235 22.81.91" fill="#E37400" mask="url(#d)"/></g><path d="M84.177 213.718c-19.065-5.073-14.705 23.166-9.336 31.604l-.002-.006c.337.611 1.173.833 1.768.47l-.004.006c8.45-4.45 27.488-26.775 7.574-32.074" fill="#FBBC04"/><path d="M345.356 138.888c6.811-6.87 6.771-17.947-.09-24.767-6.862-6.82-17.924-6.78-24.735.09l-55.508 55.985c-6.811 6.87-6.77 17.947.09 24.768 6.861 6.82 17.924 6.78 24.735-.09l55.508-55.986z" fill="#78C257"/><g transform="translate(177.048 194.451)"><mask id="f" fill="#fff"><use xlink:href="#e"/></mask><path d="M82.102 30.19c6.81-6.87 6.77-17.947-.09-24.767-6.862-6.82-17.924-6.78-24.736.09L5.541 57.693c-6.811 6.87-6.772 17.947.09 24.767 6.861 6.82 17.923 6.78 24.735-.09l51.736-52.18z" fill="#78C257" mask="url(#f)"/></g><path d="M202.088 217.059c6.681-6.739 6.81-17.438.286-23.923-6.524-6.485-17.209-6.28-23.89.46l-50.749 51.184c-6.68 6.74-6.809 17.438-.284 23.923 6.524 6.485 17.208 6.28 23.89-.46l50.747-51.184z" fill="#78C257"/><path fill="#FFF" d="M158.09 77.65l-4.523 15.941 154.288 35.606 2.851-11.096z"/><path d="M156.413 86.287l-.85-.225-29.577 111.553c-2.47 9.314 3.115 18.947 12.417 21.42l119.14 31.67c9.302 2.473 18.922-3.119 21.393-12.433l29.576-111.553-152.1-40.432zM157.366 80.122l152.65 40.578 2.166-8.166c.365-2.406.623-4.75.753-7.129 1.05-20.936-8.289-41.447-24.692-56.232l17.397-18.458a2.874 2.874 0 0 0-.112-4.037 2.865 2.865 0 0 0-4.03.113l-17.593 18.678c-8.916-7.013-19.53-12.43-31.422-15.591-11.977-3.184-23.973-3.732-35.243-2.039l-6.043-25.052c-.373-1.51-1.935-2.472-3.444-2.099-1.51.372-2.47 1.94-2.097 3.449l5.973 24.806c-20.544 4.6-38.107 16.822-47.825 34.27a63.328 63.328 0 0 0-5.872 14.601 44.015 44.015 0 0 0-.578 2.35l.012-.042z" fill="#78C257"/><path d="M281.349 68.738c3.95 1.05 6.32 5.14 5.272 9.096-1.049 3.954-5.134 6.328-9.084 5.279-3.95-1.05-6.32-5.14-5.273-9.095 1.05-3.956 5.134-6.33 9.085-5.28M210.188 49.802c3.95 1.05 6.322 5.14 5.272 9.095-1.049 3.956-5.134 6.33-9.083 5.28-3.95-1.05-6.322-5.14-5.273-9.095 1.05-3.955 5.134-6.33 9.084-5.28" fill="#FFF"/><path fill="#000" opacity=".1" d="M284.448 217.504l-148.322-39.469 4.888-18.413 148.32 39.469z"/><path fill="#F3F3F3" d="M291.21 214.535l-153.901-40.953 4.887-18.412 153.9 40.953z"/><g transform="translate(125 86)"><mask id="h" fill="#fff"><use xlink:href="#g"/></mask><path d="M44.288 59.037l-29.845 48.94c-14.555 18.227-32.755-8.632-32.755-8.632l35.411-47.474 27.19 7.166z" fill="#000" opacity=".1" mask="url(#h)"/></g><path d="M184.946 128.849c6.773-6.869 6.734-17.943-.09-24.762a17.303 17.303 0 0 0-24.598.09l-55.203 55.974c-6.775 6.868-6.734 17.942.088 24.761a17.304 17.304 0 0 0 24.6-.09l55.203-55.973z" fill="#78C257"/></g></svg>