<?xml version="1.0" standalone="no"?><!DOCTYPE svg PUBLIC "-//W3C//DTD SVG 1.1//EN"
    "http://www.w3.org/Graphics/SVG/1.1/DTD/svg11.dtd">
<svg class="icon" height="256" p-id="876" t="1565918405229"
    version="1.1" viewBox="0 0 1024 1024" width="256" xmlns="http://www.w3.org/2000/svg">
    <defs>
        <style type="text/css"></style>
    </defs>
    <path
        d="M890.24 50.56C864 25.28 388.48-2.56 208.96 176.64c-102.08 102.08-119.68 259.52-57.92 396.48A852.8 852.8 0 0 1 566.4 160a64 64 0 0 1 77.44 16.64A827.52 827.52 0 0 0 253.76 632.96a739.84 739.84 0 0 0-40.64 290.24 64 64 0 0 0 64 57.28h6.72a64 64 0 0 0 57.28-70.08 537.92 537.92 0 0 1 7.36-130.56c141.44 73.28 309.44 59.2 416-47.68 178.88-179.84 151.04-656.32 125.76-681.6z"
        fill="#8a8a8a" p-id="877"></path>
</svg>