<?xml version="1.0" standalone="no"?>
<!DOCTYPE svg PUBLIC "-//W3C//DTD SVG 20010904//EN"
 "http://www.w3.org/TR/2001/REC-SVG-20010904/DTD/svg10.dtd">
<svg version="1.0" xmlns="http://www.w3.org/2000/svg"
 width="640.000000pt" height="640.000000pt" viewBox="0 0 640.000000 640.000000"
 preserveAspectRatio="xMidYMid meet">
<metadata>
Created by potrace 1.11, written by Peter Selinger 2001-2013
</metadata>
<g transform="translate(0.000000,640.000000) scale(0.100000,-0.100000)"
fill="#000000" stroke="none">
<path d="M2551 5082 c-6 -20 -15 -59 -21 -87 -6 -27 -15 -63 -20 -80 -5 -16
-18 -68 -30 -115 -24 -97 -38 -150 -51 -200 -5 -19 -23 -91 -40 -160 -17 -69
-37 -152 -46 -185 -8 -33 -16 -67 -18 -75 -6 -28 -36 -145 -40 -158 -5 -12
-22 -6 -84 33 -22 14 -371 224 -396 238 -11 7 -50 31 -88 55 -37 23 -69 42
-71 42 -1 0 -54 32 -117 70 -63 39 -123 75 -134 80 -11 5 -38 21 -60 35 -22
14 -65 37 -95 51 -102 48 -232 35 -320 -33 -41 -31 -109 -116 -110 -136 0 -9
-25 -69 -41 -99 -5 -10 -9 -24 -9 -31 0 -7 -5 -18 -12 -25 -6 -6 -13 -17 -14
-24 -2 -11 -125 -302 -154 -363 -5 -11 -21 -48 -35 -82 -14 -35 -36 -86 -49
-115 -13 -29 -43 -98 -66 -153 -23 -55 -50 -118 -60 -140 -10 -22 -64 -148
-120 -280 -56 -132 -110 -258 -120 -280 -19 -43 -67 -157 -80 -190 -29 -71
-36 -85 -41 -85 -3 0 -6 -7 -6 -15 0 -10 6 -14 14 -10 32 11 348 118 358 119
5 1 20 8 33 14 12 7 22 11 22 8 0 -2 24 4 54 14 74 26 108 32 206 35 130 3
242 -29 360 -103 59 -38 165 -142 175 -173 4 -10 11 -19 16 -19 5 0 9 -5 9
-10 0 -6 17 -34 38 -63 21 -29 48 -69 60 -90 12 -20 26 -43 32 -50 14 -16 48
-67 106 -157 26 -41 52 -76 56 -78 4 -2 8 -10 8 -18 0 -8 4 -14 8 -14 5 0 14
-11 20 -25 6 -14 17 -25 23 -25 6 0 37 26 68 58 128 131 237 196 377 224 68
14 223 16 244 3 5 -3 19 -8 30 -11 11 -2 29 -6 40 -9 40 -8 90 -29 90 -37 0
-4 7 -8 17 -8 19 0 113 -69 161 -118 18 -18 152 -193 299 -388 146 -195 269
-354 273 -354 4 0 128 161 276 357 147 197 291 380 318 406 89 85 206 143 331
163 43 7 185 7 220 -1 153 -32 248 -88 384 -224 l70 -70 35 50 c20 27 36 51
36 54 0 3 18 30 40 60 22 30 40 58 40 63 0 4 8 17 18 28 9 10 33 44 52 74 19
30 37 57 40 60 3 3 36 51 73 107 37 56 87 122 110 146 81 86 201 152 332 183
48 12 202 11 254 -2 31 -7 146 -43 256 -80 110 -36 226 -74 257 -84 l57 -18
-9 22 c-8 22 -42 99 -65 151 -51 114 -95 222 -95 233 0 6 -4 12 -10 12 -5 0
-10 6 -10 13 0 12 -48 129 -95 232 -16 36 -44 104 -44 108 0 1 -14 34 -31 72
-17 39 -38 86 -47 105 -8 19 -23 52 -34 73 -10 20 -17 37 -14 37 2 0 -14 39
-35 86 -22 47 -40 92 -40 100 0 8 -4 14 -10 14 -5 0 -10 5 -10 12 0 13 -89
225 -126 301 -13 26 -21 47 -19 47 2 0 -14 38 -36 85 -21 47 -39 92 -39 100 0
8 -4 15 -10 15 -5 0 -10 6 -10 14 0 47 -98 196 -130 196 -5 0 -10 4 -10 8 0 8
-45 30 -105 51 -32 12 -147 5 -185 -11 -30 -13 -755 -442 -786 -465 -5 -4 -21
-14 -35 -22 -13 -8 -73 -43 -132 -78 -60 -35 -110 -63 -111 -63 -2 0 -7 17
-11 38 -3 20 -27 118 -51 217 -48 191 -51 203 -59 236 -2 11 -7 30 -11 42 -4
12 -9 31 -10 42 -2 11 -22 90 -44 175 -38 148 -43 169 -53 215 -3 11 -10 40
-17 65 -7 25 -14 52 -15 60 -2 8 -4 16 -4 18 -1 1 -97 -70 -215 -159 l-215
-161 -63 1 c-35 1 -107 2 -161 4 -53 1 -97 0 -97 -4 0 -8 -103 5 -120 16 -8 5
-104 75 -212 157 l-197 148 -10 -38z"/>
</g>
</svg>
