<?xml version="1.0" standalone="no"?><!DOCTYPE svg PUBLIC "-//W3C//DTD SVG 1.1//EN"
    "http://www.w3.org/Graphics/SVG/1.1/DTD/svg11.dtd">
<svg style="" class="icon" height="24" p-id="8265" t="1560908988197" version="1.1"
    viewBox="0 0 1024 1024" width="24" xmlns="http://www.w3.org/2000/svg">
    <defs>
        <style type="text/css"></style>
    </defs>
    <path
        d="M882.948 532.076C584.191 511.375 528.23 636.545 512.2 690.14c-0.126 7.061-0.2 8.22-0.2 1.364 0 5.561-0.067 4.884-0.172-0.57-15.994-53.648-71.85-179.214-370.776-158.461C165.34 447.906 103.2 374.385 1 328h333.1s5.994 87.089 94.63 87.089c13.564 0 40.375 3.156 49.207-11.359 0-12.662-3.075-55.141-3.785-60.584 8.517 10.649 15.019 31.428 15.141 34.078h44.792c0.218-0.034 0.409-0.059 0.63-0.095 0.122-2.645 6.624-23.383 15.141-34.012-0.71 5.432-3.785 47.83-3.785 60.467 8.832 14.487 35.643 11.337 49.207 11.337C683.91 414.921 689.9 328 689.9 328H1023c-102.2 46.3-164.34 119.674-140.052 204.076z"
        p-id="8266">
    </path>
</svg>